# AST/ASF file generated using VICON BodyLanguage
# -----------------------------------------------
:version 1.10
:name VICON
:units
  mass 1.0
  length 0.45
  angle deg
:documentation
   .ast/.asf automatically generated from VICON data using
   VICON BodyBuilder and BodyLanguage model FoxedUp or BRILLIANT.MOD
:root
   order TX TY TZ RX RY RZ
   axis XYZ
   position 0 0 0  
   orientation 0 0 0 
:bonedata
  begin
     id 1 
     name lhipjoint
     direction 0.650112 -0.723553 0.232005 
     length 2.45805 
     axis 0 0 0  XYZ
  end
  begin
     id 2 
     name lfemur
     direction 0.34202 -0.939693 0  
     length 7.00073  
     axis 0 0 20  XYZ
    dof rx ry rz
    limits (-160.0 20.0)
           (-70.0 70.0)
           (-60.0 70.0)
  end
  begin
     id 3 
     name ltibia
     direction 0.34202 -0.939693 0   
     length 7.8748   
     axis 0 0 20   XYZ
    dof rx
    limits (-10.0 170.0)
  end
  begin
     id 4 
     name lfoot
     direction 0.0542825 -0.14914 0.987325   
     length 1.75978   
     axis -90 7.62852e-016 20   XYZ
    dof rx rz
    limits (-45.0 90.0)
           (-70.0 20.0)
  end
  begin
     id 5 
     name ltoes
     direction 1.53509e-011 -4.21906e-011 1   
     length 0.893912   
     axis -90 7.62852e-016 20   XYZ
    dof rx
    limits (-90.0 20.0)
  end
  begin
     id 6 
     name rhipjoint
     direction -0.637897 -0.733345 0.235145   
     length 2.42522  
     axis 0 0 0  XYZ 
  end
  begin
     id 7 
     name rfemur
     direction -0.34202 -0.939693 0   
     length 7.02549   
     axis 0 0 -20   XYZ
    dof rx ry rz
    limits (-160.0 20.0)
           (-70.0 70.0)
           (-70.0 60.0)
  end
  begin
     id 8 
     name rtibia
     direction -0.34202 -0.939693 0   
     length 7.71512   
     axis 0 0 -20   XYZ
    dof rx
    limits (-10.0 170.0)
 end
 begin
     id 9 
     name rfoot
     direction -0.0822618 -0.226012 0.970645   
     length 1.90014  
     axis -90 -7.62852e-016 -20   XYZ
    dof rx rz
    limits (-45.0 90.0)
           (-20.0 70.0)
  end
  begin
     id 10 
     name rtoes
     direction -1.53542e-011 -4.21872e-011 1   
     length 0.957341   
     axis -90 -7.62852e-016 -20   XYZ
    dof rx
    limits (-90.0 20.0)
  end
  begin
     id 11 
     name lowerback
     direction -0.0022947 0.999774 -0.0211557   
     length 1.89909   
     axis 0 0 0   XYZ
    dof rx ry rz
    limits (-20.0 45.0)
           (-30.0 30.0)
           (-30.0 30.0)
  end
  begin
     id 12 
     name upperback
     direction 0.0107737 0.998635 0.0511027   
     length 1.8853   
     axis 0 0 0   XYZ
    dof rx ry rz
    limits (-20.0 45.0)
           (-30.0 30.0)
           (-30.0 30.0)
  end
  begin
     id 13 
     name thorax
     direction 0.011824 0.998136 0.0598754   
     length 1.88911   
     axis 0 0 0   XYZ
    dof rx ry rz
    limits (-20.0 45.0)
           (-30.0 30.0)
           (-30.0 30.0)
  end
  begin
     id 14 
     name lowerneck
     direction -0.0685355 0.990319 0.120714   
     length 1.91222   
     axis 0 0 0   XYZ
    dof rx ry rz
    limits (-20.0 45.0)
           (-30.0 30.0)
           (-30.0 30.0)
  end
  begin
     id 15 
     name upperneck
     direction 0.0886204 0.955665 -0.280805   
     length 1.92526   
     axis 0 0 0   XYZ
    dof rx ry rz
    limits (-20.0 45.0)
           (-30.0 30.0)
           (-30.0 30.0)
  end
  begin
     id 16
     name head
     direction 0.0233423 0.993502 -0.111393  
     length 1.96056  
     axis 0 0 0   XYZ
    dof rx ry rz
    limits (-20.0 45.0)
           (-30.0 30.0)
           (-30.0 30.0)
  end
  begin
     id 17 
     name lclavicle
     direction 0.941873 0.32922 0.0670041  
     length 3.31705  
     axis 0 0 0   XYZ
    dof ry rz
    limits (-20.0 10.0)
           (0.0 20.0)
  end
  begin
     id 18 
     name lhumerus
     direction 1 -4.4898e-011 3.38707e-028   
     length 5.29277   
     axis 180 -30 -90   XYZ
    dof rx ry rz
    limits (-60.0 90.0)
           (-90.0 90.0)
           (-90.0 90.0)
  end
  begin
     id 19
     name lradius
     direction 1 -4.48952e-011 1.63213e-028   
     length 2.85226   
     axis 180 -30 -90   XYZ
    dof rx
    limits (-10.0 170.0)
  end
  begin
     id 20
     name lwrist
     direction 1 -4.49001e-011 1.27856e-027   
     length 1.42613   
     axis -1.61767e-015 90 90   XYZ
    dof ry
    limits (-180.0 0.0)
 end
  begin
     id 21 
     name lhand
     direction 1 -4.48976e-011 2.55931e-027   
     length 0.602097   
     axis -1.63363e-015 90 90   XYZ
    dof rx rz
    limits (-90.0 90.0)
           (-45.0 45.0)
  end
  begin
     id 22 
     name lfingers
     direction 1 -4.48986e-011 5.11684e-027   
     length 0.485426   
     axis -3.26723e-015 90 90   XYZ
    dof rx
    limits (0.0 90.0)
  end
  begin
     id 23
     name lthumb
     direction 0.707107 -6.34915e-011 0.707107   
     length 0.696978   
     axis -90 45 -2.25915e-014   XYZ
    dof rx rz
    limits (-45.0 45.0)
           (-45.0 45.0)
  end
  begin
     id 24 
     name rclavicle
     direction -0.939974 0.327078 0.0973096   
     length 3.10337  
     axis 0 0 0   XYZ 
    dof ry rz
    limits (-10.0 20.0)
           (-20.0 0.0)
  end
  begin
     id 25 
     name rhumerus
     direction -1 -4.48975e-011 1.83745e-027  
     length 5.13304   
     axis 180 30 90   XYZ
    dof rx ry rz
    limits (-90.0 60.0)
           (-90.0 90.0)
           (-90.0 90.0)
  end
  begin
     id 26 
     name rradius
     direction -1 -4.48977e-011 7.1775e-029   
     length 2.74305   
     axis 180 30 90   XYZ
    dof rx
    limits (-10.0 170.0)
  end
  begin
     id 27 
     name rwrist
     direction -1 -4.48977e-011 1.27963e-027   
     length 1.37152   
     axis -1.61767e-015 -90 -90   XYZ
    dof ry
    limits (-180.0 0.0)
  end
  begin
     id 28
     name rhand
     direction -1 -4.4888e-011 2.56782e-027   
     length 0.767976   
     axis -1.63363e-015 -90 -90   XYZ
    dof rx rz
    limits (-90.0 90.0)
           (-45.0 45.0)
  end
  begin
     id 29
     name rfingers
     direction -1 -4.48947e-011 5.12384e-027   
     length 0.619162   
     axis -3.26723e-015 -90 -90   XYZ
    dof rx
    limits (0.0 90.0)
  end
  begin
     id 30
     name rthumb
     direction -0.707107 -6.34857e-011 0.707107   
     length 0.888997   
     axis -90 -45 2.25915e-014   XYZ
    dof rx rz
    limits (-45.0 45.0)
           (-45.0 45.0)
  end
:hierarchy
  begin
    root lhipjoint rhipjoint lowerback
    lhipjoint lfemur
    lfemur ltibia
    ltibia lfoot
    lfoot ltoes
    rhipjoint rfemur
    rfemur rtibia
    rtibia rfoot
    rfoot rtoes
    lowerback upperback
    upperback thorax
    thorax lowerneck lclavicle rclavicle
    lowerneck upperneck
    upperneck head
    lclavicle lhumerus
    lhumerus lradius
    lradius lwrist
    lwrist lhand lthumb
    lhand lfingers
    rclavicle rhumerus
    rhumerus rradius
    rradius rwrist
    rwrist rhand rthumb
    rhand rfingers
  end

#!OML:ASF F:\VICON\USERDATA\INSTALL\rory3\rory3.ASF
:FULLY-SPECIFIED
:DEGREES
962
root 0.369372 16.8013 -0.380581 -9.8131 -1.4779 -1.35201
lowerback 0.284146 -1.56601 -2.68659
upperback 7.21948 -2.15376 2.27506
thorax 7.58531 -1.33123 3.75759
lowerneck 13.9733 -7.16764 -21.2591
upperneck 11.2039 -13.904 20.6347
head 3.93792 -7.68912 10.0696
rclavicle -1.0138e-014 1.19271e-014
rhumerus 22.0417 29.807 -28.3599
rradius 145.767
rwrist -44.1485
rhand 29.683 17.9391
rfingers 7.12502
rthumb 53.4218 -1.28252
lclavicle -1.0138e-014 1.19271e-014
lhumerus 26.3367 -40.8908 33.6275
lradius 143.83
lwrist 57.8782
lhand 36.7003 26.8766
lfingers 7.12502
lthumb 59.6082 41.0618
rfemur 2.80071 4.62651 19.4427
rtibia 28.775
rfoot -22.8913 -6.92261
rtoes -25.6171
lfemur 0.633135 -5.11444 -19.6768
ltibia 33.6953
lfoot -22.8877 6.48655
ltoes -18.9237
963
root 0.37383 16.7947 -0.376898 -9.8849 -1.69809 -1.39553
lowerback 0.403452 -1.63627 -2.77777
upperback 7.22129 -2.2534 2.36289
thorax 7.53635 -1.38984 3.89815
lowerneck 13.9391 -7.28419 -21.4075
upperneck 11.2564 -14.0882 20.6142
head 4.0121 -7.78516 10.0707
rclavicle -3.27498e-014 -1.98785e-015
rhumerus 20.1316 29.2961 -32.5285
rradius 145.759
rwrist -43.5121
rhand 30.9828 18.2623
rfingers 7.12502
rthumb 54.5883 -0.170053
lclavicle -3.27498e-014 -1.98785e-015
lhumerus 23.1576 -40.608 38.4865
lradius 143.804
lwrist 57.7825
lhand 38.1228 27.4136
lfingers 7.12502
lthumb 60.8217 40.3013
rfemur 2.79904 4.70035 19.4885
rtibia 28.8995
rfoot -22.9405 -6.91564
rtoes -26.2801
lfemur 0.690415 -5.01121 -19.6452
ltibia 33.8389
lfoot -23.0082 6.58402
ltoes -18.9903
964
root 0.377255 16.7875 -0.376445 -9.90768 -1.91655 -1.49127
lowerback 0.558665 -1.76244 -2.84731
upperback 7.18339 -2.42883 2.43861
thorax 7.42975 -1.48255 4.0103
lowerneck 13.9405 -7.3317 -21.3869
upperneck 11.2915 -14.1514 20.5185
head 4.02969 -7.81704 10.0275
rclavicle 2.09221e-014 0
rhumerus 18.3937 28.6068 -36.7401
rradius 145.654
rwrist -42.9597
rhand 32.7598 18.6008
rfingers 7.12502
rthumb 56.1696 1.34331
lclavicle 2.09221e-014 0
lhumerus 19.7394 -40.0609 43.4115
lradius 143.815
lwrist 58.0029
lhand 39.696 28.2456
lfingers 7.12502
lthumb 62.1427 39.5607
rfemur 2.74383 4.77736 19.5927
rtibia 29.0048
rfoot -22.9469 -6.91745
rtoes -26.8486
lfemur 0.653177 -4.875 -19.5258
ltibia 34.0247
lfoot -23.0921 6.62224
ltoes -18.8065
965
root 0.382278 16.782 -0.374299 -9.93453 -2.17683 -1.66048
lowerback 0.593012 -1.93255 -2.90527
upperback 7.24689 -2.66862 2.59586
thorax 7.51563 -1.61519 4.19431
lowerneck 13.9691 -7.28648 -21.4629
upperneck 11.1924 -14.0867 20.4416
head 3.98203 -7.7903 10.0174
rclavicle 1.963e-014 -2.14687e-014
rhumerus 16.8538 27.7236 -40.6912
rradius 145.688
rwrist -43.0391
rhand 34.038 18.6605
rfingers 7.12502
rthumb 57.296 2.32381
lclavicle 1.963e-014 -2.14687e-014
lhumerus 16.6245 -39.0847 48.1673
lradius 143.83
lwrist 58.0963
lhand 40.4849 29.0438
lfingers 7.12502
lthumb 62.796 39.51
rfemur 2.69953 4.86488 19.7744
rtibia 29.0871
rfoot -22.932 -6.85282
rtoes -26.8805
lfemur 0.632091 -4.74215 -19.3287
ltibia 34.2269
lfoot -23.2542 6.51279
ltoes -17.9587
966
root 0.387424 16.7759 -0.367827 -10.0061 -2.45049 -1.77188
lowerback 0.475198 -2.03886 -3.0291
upperback 7.42856 -2.8221 2.79039
thorax 7.81886 -1.71751 4.45505
lowerneck 14.0063 -7.29578 -21.5836
upperneck 10.9962 -14.0889 20.3655
head 3.92342 -7.7972 10.0093
rclavicle 1.57537e-014 -3.65764e-014
rhumerus 15.1907 26.5915 -44.439
rradius 145.773
rwrist -43.4152
rhand 35.3049 18.8237
rfingers 7.12502
rthumb 58.4025 3.46893
lclavicle 1.57537e-014 -3.65764e-014
lhumerus 13.9843 -38.0138 52.7181
lradius 143.905
lwrist 58.0801
lhand 40.7586 30.0481
lfingers 7.12502
lthumb 63.021 40.2099
rfemur 2.71992 4.95085 19.8912
rtibia 29.1755
rfoot -23.0362 -6.69912
rtoes -26.8485
lfemur 0.690575 -4.59704 -19.2068
ltibia 34.4057
lfoot -23.406 6.56716
ltoes -17.7586
967
root 0.392095 16.7699 -0.362709 -10.0466 -2.76189 -1.86893
lowerback 0.45596 -2.10934 -3.10635
upperback 7.50833 -2.92675 2.94382
thorax 7.9445 -1.78606 4.65337
lowerneck 14.0694 -7.34745 -21.5574
upperneck 10.8839 -14.134 20.1634
head 3.87672 -7.8213 9.93001
rclavicle -2.57923e-014 7.55382e-015
rhumerus 13.2489 25.6081 -48.2542
rradius 145.873
rwrist -43.4802
rhand 36.521 18.7302
rfingers 7.12502
rthumb 59.4541 4.38935
lclavicle -2.57923e-014 7.55382e-015
lhumerus 11.2481 -37.002 57.1202
lradius 144.026
lwrist 58.1198
lhand 41.3665 30.8451
lfingers 7.12502
lthumb 63.5178 40.3113
rfemur 2.68338 5.04434 19.9925
rtibia 29.2834
rfoot -23.2132 -6.40409
rtoes -26.3211
lfemur 0.734264 -4.40169 -19.0869
ltibia 34.5315
lfoot -23.4514 6.71254
ltoes -18.1429
968
root 0.397085 16.7644 -0.35944 -10.0818 -3.0492 -1.82146
lowerback 0.551485 -2.13936 -3.15086
upperback 7.48633 -2.96647 2.92521
thorax 7.87078 -1.80658 4.65913
lowerneck 14.4433 -7.41042 -21.3643
upperneck 10.6751 -14.2227 20.0167
head 3.75151 -7.87737 9.85989
rclavicle 5.11871e-014 -4.17448e-014
rhumerus 11.0525 24.5313 -52.227
rradius 145.893
rwrist -43.3568
rhand 37.4021 18.8238
rfingers 7.12502
rthumb 60.2089 5.26476
lclavicle 5.11871e-014 -4.17448e-014
lhumerus 8.59104 -36.0003 61.1797
lradius 144.086
lwrist 58.2901
lhand 42.3476 31.4827
lfingers 7.12502
lthumb 64.3103 39.7676
rfemur 2.61303 5.10823 19.9181
rtibia 29.4218
rfoot -23.3913 -6.06017
rtoes -25.5992
lfemur 0.784977 -4.2481 -19.1486
ltibia 34.6142
lfoot -23.59 6.92289
ltoes -18.6119
969
root 0.401844 16.7577 -0.355045 -10.219 -3.28157 -1.63026
lowerback 0.801762 -2.2313 -3.38276
upperback 7.44979 -3.08186 2.83736
thorax 7.7077 -1.87248 4.6975
lowerneck 14.8754 -7.46217 -21.2105
upperneck 10.4339 -14.3154 19.9361
head 3.61543 -7.94065 9.82464
rclavicle -2.02263e-014 -6.75868e-015
rhumerus 9.06055 23.4132 -56.0288
rradius 145.853
rwrist -43.3436
rhand 38.2951 19.4007
rfingers 7.12502
rthumb 60.9674 6.67775
lclavicle -2.02263e-014 -6.75868e-015
lhumerus 5.81581 -34.705 65.0384
lradius 144.179
lwrist 58.6266
lhand 43.4906 32.3406
lfingers 7.12502
lthumb 65.2178 39.1506
rfemur 2.6558 5.12229 19.6691
rtibia 29.5683
rfoot -23.5399 -5.79357
rtoes -25.2722
lfemur 0.943794 -4.15428 -19.3968
ltibia 34.7208
lfoot -23.7963 7.13811
ltoes -18.9174
970
root 0.408346 16.75 -0.351073 -10.3001 -3.51412 -1.58919
lowerback 1.03512 -2.39603 -3.50587
upperback 7.41288 -3.30369 2.80403
thorax 7.56393 -1.98668 4.72586
lowerneck 15.0483 -7.51471 -21.1809
upperneck 10.2528 -14.3918 19.8765
head 3.54563 -7.98718 9.80271
rclavicle -2.13694e-015 -1.66979e-014
rhumerus 7.29774 22.3425 -59.5657
rradius 145.858
rwrist -43.458
rhand 39.3989 19.8523
rfingers 7.12502
rthumb 61.8951 8.22835
lclavicle -2.13694e-015 -1.66979e-014
lhumerus 3.0832 -33.1445 68.6894
lradius 144.219
lwrist 58.7472
lhand 44.7695 32.9896
lfingers 7.12502
lthumb 66.2107 38.0126
rfemur 2.63966 5.09064 19.5682
rtibia 29.71
rfoot -23.6921 -5.60371
rtoes -25.5009
lfemur 1.02053 -4.08495 -19.4809
ltibia 34.8798
lfoot -23.8753 7.33526
ltoes -19.1629
971
root 0.414763 16.7427 -0.352283 -10.2811 -3.8906 -1.88113
lowerback 1.19486 -2.47018 -3.27363
upperback 7.40256 -3.42281 2.93218
thorax 7.46651 -2.03479 4.73005
lowerneck 15.1373 -7.60606 -21.2675
upperneck 10.0859 -14.5262 19.8508
head 3.51774 -8.06126 9.80222
rclavicle 3.73715e-014 -3.02153e-014
rhumerus 5.61048 21.1113 -62.6149
rradius 145.928
rwrist -43.6
rhand 40.2036 19.9573
rfingers 7.12502
rthumb 62.5638 9.18348
lclavicle 3.73715e-014 -3.02153e-014
lhumerus 0.767735 -31.6952 72.2039
lradius 144.222
lwrist 58.5348
lhand 45.6291 33.356
lfingers 7.12502
lthumb 66.8632 37.0894
rfemur 2.4947 5.14804 19.8718
rtibia 29.8474
rfoot -23.7263 -5.45029
rtoes -25.7242
lfemur 0.981292 -3.90365 -19.1405
ltibia 35.0659
lfoot -23.9171 7.49968
ltoes -19.4508
972
root 0.420416 16.7349 -0.354602 -10.272 -4.35211 -2.1612
lowerback 1.32118 -2.47218 -2.96305
upperback 7.43964 -3.44419 3.03205
thorax 7.42073 -2.03006 4.6644
lowerneck 15.2196 -7.71178 -21.276
upperneck 9.93749 -14.67 19.8437
head 3.49345 -8.1366 9.79487
rclavicle -1.61016e-014 2.14687e-014
rhumerus 4.005 19.784 -65.3877
rradius 146.022
rwrist -43.8466
rhand 40.7224 20.049
rfingers 7.12502
rthumb 62.9913 9.84661
lclavicle -1.61016e-014 2.14687e-014
lhumerus -1.16342 -30.3075 75.3651
lradius 144.204
lwrist 58.5354
lhand 46.1494 33.7127
lfingers 7.12502
lthumb 67.2518 36.629
rfemur 2.34971 5.32981 20.1993
rtibia 29.9865
rfoot -23.7351 -5.30787
rtoes -25.7725
lfemur 0.94878 -3.67889 -18.7988
ltibia 35.2524
lfoot -24.0289 7.52282
ltoes -18.8792
973
root 0.427661 16.7293 -0.351124 -10.3526 -4.72079 -2.0826
lowerback 1.46441 -2.51054 -2.96336
upperback 7.46981 -3.49435 2.94698
thorax 7.36944 -2.05188 4.57665
lowerneck 15.2497 -7.79365 -21.108
upperneck 9.92459 -14.7617 19.8074
head 3.48955 -8.17847 9.74992
rclavicle 1.72446e-014 -2.10712e-014
rhumerus 2.30494 18.7502 -68.1497
rradius 146.064
rwrist -44.0937
rhand 41.29 20.2708
rfingers 7.12502
rthumb 63.4556 10.7156
lclavicle 1.72446e-014 -2.10712e-014
lhumerus -2.98541 -28.8696 78.1287
lradius 144.258
lwrist 58.8104
lhand 46.105 33.9785
lfingers 7.12502
lthumb 67.2188 36.9656
rfemur 2.28638 5.41414 20.082
rtibia 30.1591
rfoot -23.8564 -5.07154
rtoes -25.8207
lfemur 1.02909 -3.50617 -18.9071
ltibia 35.3757
lfoot -24.1208 7.70812
ltoes -18.8238
974
root 0.436521 16.7256 -0.34492 -10.4152 -5.08614 -1.89674
lowerback 1.55375 -2.53672 -3.0591
upperback 7.47634 -3.5234 2.84383
thorax 7.32699 -2.06816 4.52303
lowerneck 15.2577 -7.84078 -20.974
upperneck 9.96168 -14.816 19.797
head 3.49972 -8.20231 9.72133
rclavicle -1.3418e-014 1.31198e-014
rhumerus 0.639403 17.8591 -70.6032
rradius 146.057
rwrist -44.3856
rhand 42.0064 20.3648
rfingers 7.12502
rthumb 64.0361 11.6607
lclavicle -1.3418e-014 1.31198e-014
lhumerus -4.69497 -27.5026 80.7593
lradius 144.305
lwrist 58.9887
lhand 45.7659 34.0022
lfingers 7.12502
lthumb 66.9658 37.5236
rfemur 2.18092 5.50491 19.834
rtibia 30.3589
rfoot -24.0477 -4.66346
rtoes -25.0375
lfemur 1.13246 -3.33558 -19.1477
ltibia 35.4265
lfoot -24.1898 7.9508
ltoes -18.9719
